:SAMPLES-PER-SECOND 30
:FULLY-SPECIFIED
:DEGREES
592
root  65.7065 39.0764 11.199 175.634 35.3385 176.809
RightUpLeg  -3.10409 -8.00418 -4.55188
RightLeg  15.8718 3.98382 0.901434
RightFoot  -9.30168 -0.0624876 -0.0374231
RightToes  2.96859e-009 0 -3.6325e-017
Spine  11.2114 -1.5439 7.97182
Spine1  13.2068 -1.45055 1.31259
HEad  -13.9704 17.0859 -20.9585
LeftShoulder1  0.344762 2.57803 -31.094
LeftArm  -15.2736 1.56593 -40.02
LeftForeArm  44.7343 -77.9837 -67.0917
LeftHand  0.0426254 3.7276 -4.65973
RightShoulder  -0.455786 -4.94409 24.7655
RightArm  -20.6708 -15.2822 40.2996
RightForeArm  115.39 68.7597 148.206
RightHand  -0.0853713 -1.40351 -2.2771
LeftUpLeg  -13.8958 2.57059 -2.39444
LeftLeg  7.47238 -3.40235 -1.07545
LeftFoot  1.11566 0.707322 -6.55923
LeftToes  3.24686e-010 -7.02549e-012 1.39809e-011
593
root  65.7998 39.1553 11.4531 176.194 28.6025 177.187
RightUpLeg  -1.64181 -10.7433 -4.84236
RightLeg  14.0871 0.198689 0.796119
RightFoot  -9.08668 -0.0705481 0.462276
RightToes  2.96859e-009 0 -3.6325e-017
Spine  9.75632 -1.74995 8.91208
Spine1  13.0552 -1.45482 0.540139
HEad  -11.8211 15.6001 -20.2625
LeftShoulder1  0.31148 2.66269 -30.938
LeftArm  -15.9233 4.02019 -39.0199
LeftForeArm  49.0594 -78.3049 -70.9003
LeftHand  0.0213992 4.17947 -4.6312
RightShoulder  -0.503241 -5.04729 25.7846
RightArm  -18.5722 -17.6876 40.1284
RightForeArm  116.107 68.7429 148.309
RightHand  -0.106107 -1.44928 -2.91286
LeftUpLeg  -14.5813 5.50417 -2.6972
LeftLeg  10.446 -0.642327 -0.938153
LeftFoot  0.513164 0.448821 -4.35855
LeftToes  3.24686e-010 -7.02549e-012 1.39809e-011
594
root  65.9187 39.1615 11.637 176.314 22.4933 177.293
RightUpLeg  -0.342791 -11.7829 -5.29939
RightLeg  13.2322 -4.68809 0.841522
RightFoot  -9.38057 -0.0790638 0.916962
RightToes  2.96859e-009 0 -3.6325e-017
Spine  8.39416 -1.36737 9.25389
Spine1  13.4997 -1.0139 0.319904
HEad  -10.3079 13.5871 -20.2994
LeftShoulder1  0.244479 2.84575 -31.0336
LeftArm  -16.3073 4.48161 -37.798
LeftForeArm  52.177 -78.4492 -71.2548
LeftHand  0.0186675 4.26075 -4.76927
RightShoulder  -0.493427 -4.98977 26.3387
RightArm  -16.0835 -18.7804 38.8743
RightForeArm  116 69.2772 147.418
RightHand  -0.0699882 -1.69906 -1.94797
LeftUpLeg  -15.1949 9.64209 -3.30443
LeftLeg  13.94 -1.69088 -0.635319
LeftFoot  -0.231875 0.254333 -2.58779
LeftToes  3.24686e-010 -7.02549e-012 1.39809e-011
595
root  65.9689 39.1536 11.7742 176.297 16.4798 177.524
RightUpLeg  1.11106 -12.0328 -5.58952
RightLeg  12.3721 -10.0036 0.817219
RightFoot  -9.69857 -0.0885744 1.57562
RightToes  2.96859e-009 0 -3.6325e-017
Spine  7.78529 -1.05481 9.7303
Spine1  13.3258 -0.600403 0.145648
HEad  -8.62792 11.4872 -20.7912
LeftShoulder1  0.222709 2.89919 -30.7311
LeftArm  -16.3317 4.918 -36.9954
LeftForeArm  51.9655 -78.432 -70.8625
LeftHand  0.00483796 4.56678 -4.78076
RightShoulder  -0.366162 -4.61638 25.9031
RightArm  -13.6684 -19.0481 38.0056
RightForeArm  113.903 69.9472 146.009
RightHand  -0.0767371 -1.58594 -2.11571
LeftUpLeg  -15.9945 12.2064 -3.38457
LeftLeg  17.5695 -3.01282 -0.690124
LeftFoot  -1.03925 0.0721494 -0.743478
LeftToes  3.24686e-010 -7.02549e-012 1.39809e-011
596
root  66.0111 39.1705 11.8563 176.617 10.7629 177.698
RightUpLeg  2.34453 -12.0581 -5.7133
RightLeg  11.1632 -15.2162 0.931709
RightFoot  -9.66839 -0.096642 2.12708
RightToes  2.96859e-009 0 -3.6325e-017
Spine  7.05059 -0.765573 11.0668
Spine1  13.052 0.253551 -1.58015
HEad  -7.04166 10.1116 -21.4079
LeftShoulder1  0.257228 2.81084 -30.9901
LeftArm  -15.8841 4.99439 -35.6433
LeftForeArm  50.6402 -78.4002 -72.5176
LeftHand  -0.00668054 4.76194 -4.28349
RightShoulder  -0.331725 -4.48931 26.5118
RightArm  -12.3381 -18.4091 37.0714
RightForeArm  113.197 70.3462 145.179
RightHand  -0.0672321 -2.05664 -1.95868
LeftUpLeg  -16.2963 11.9953 -3.04376
LeftLeg  18.6869 -2.08304 -0.466817
LeftFoot  -1.46809 0.0762351 -0.786886
LeftToes  3.24686e-010 -7.02549e-012 1.39809e-011
597
root  65.996 39.1856 11.8754 176.632 5.25737 177.517
RightUpLeg  3.5285 -12.7052 -6.33511
RightLeg  10.6103 -19.8109 1.0173
RightFoot  -9.75265 -0.100447 2.48156
RightToes  2.96859e-009 0 -3.6325e-017
Spine  6.82768 -0.452932 11.331
Spine1  12.6314 0.789577 -2.23078
HEad  -5.92151 8.02469 -22.78
LeftShoulder1  0.225255 2.90815 -31.6863
LeftArm  -15.6934 5.69202 -34.5381
LeftForeArm  57.2156 -78.7398 -78.4498
LeftHand  0.0665711 3.83498 -6.82053
RightShoulder  -0.239457 -4.21301 26.2971
RightArm  -11.7003 -17.4696 36.9098
RightForeArm  112.45 70.8742 144.056
RightHand  -0.0448332 -2.28093 -1.23053
LeftUpLeg  -15.9305 14.0884 -3.32223
LeftLeg  17.9247 -2.25347 -0.474586
LeftFoot  -1.97279 0.110723 -1.19619
LeftToes  3.24686e-010 -7.02549e-012 1.39809e-011
598
root  65.9827 39.1795 11.8202 176.893 -0.357147 177.728
RightUpLeg  4.66404 -13.0714 -6.39558
RightLeg  9.97792 -24.719 1.20577
RightFoot  -9.72293 -0.108956 3.02715
RightToes  2.96859e-009 0 -3.6325e-017
Spine  5.91008 -0.140384 11.2363
Spine1  13.2342 1.02766 -2.15353
HEad  -5.66861 7.3005 -23.6368
LeftShoulder1  0.0393272 3.39919 -31.5154
LeftArm  -16.2312 5.40516 -35.0448
LeftForeArm  56.9465 -78.7248 -77.7858
LeftHand  0.124513 3.13522 -7.52601
RightShoulder  -0.268567 -4.30203 26.3287
RightArm  -11.903 -15.7789 37.554
RightForeArm  111.879 71.0217 143.681
RightHand  -0.0605899 -2.04494 -1.7529
LeftUpLeg  -15.8406 18.4295 -3.4112
LeftLeg  16.5679 -2.41644 -0.546792
LeftFoot  -2.64358 0.0307132 -0.198078
LeftToes  3.24686e-010 -7.02549e-012 1.39809e-011
599
root  65.9712 39.2162 11.7223 177.443 -5.62358 177.8
RightUpLeg  5.61905 -13.0295 -6.21207
RightLeg  8.76208 -29.8372 1.48333
RightFoot  -9.25489 -0.125877 3.46273
RightToes  2.96859e-009 0 -3.6325e-017
Spine  5.38198 0.444323 11.2066
Spine1  13.0518 1.75507 -2.76987
HEad  -5.5075 6.38769 -22.8858
LeftShoulder1  0.153849 3.09082 -31.1501
LeftArm  -16.6568 6.45908 -35.6354
LeftForeArm  61.0146 -78.8516 -82.8431
LeftHand  0.0185119 4.11473 -4.13639
RightShoulder  -0.331184 -4.48584 26.5051
RightArm  -12.9266 -15.0351 37.8413
RightForeArm  113.871 70.6464 144.687
RightHand  -0.0404191 -2.48507 -1.05828
LeftUpLeg  -15.2416 20.8113 -3.23375
LeftLeg  13.5737 2.82927 0.0532144
LeftFoot  -2.88027 -0.0605264 1.05629
LeftToes  3.24686e-010 -7.02549e-012 1.39809e-011
600
root  65.9168 39.2351 11.5426 177.67 -11.312 177.986
RightUpLeg  7.19013 -13.2415 -6.16069
RightLeg  7.28101 -35.1146 2.41925
RightFoot  -8.92929 -0.141806 3.88089
RightToes  2.96859e-009 0 -3.6325e-017
Spine  4.98848 0.59532 10.9855
Spine1  13.3575 2.0798 -3.49745
HEad  -5.52542 6.05614 -24.0736
LeftShoulder1  0.144084 3.10936 -30.4689
LeftArm  -17.3301 7.04337 -36.3094
LeftForeArm  67.4415 -79.0061 -87.3464
LeftHand  0.0189502 4.17733 -4.35195
RightShoulder  -0.439613 -4.78801 27.3044
RightArm  -13.8133 -13.6646 37.7695
RightForeArm  114.942 70.2324 145.606
RightHand  -0.0232422 -3.01781 -0.348428
LeftUpLeg  -13.6884 17.5959 -1.68546
LeftLeg  10.4184 15.2203 -0.139334
LeftFoot  -3.09019 -0.16292 2.51335
LeftToes  3.24686e-010 -7.02549e-012 1.39809e-011
601
root  65.8675 39.2746 11.2637 178.058 -16.6996 178.215
RightUpLeg  8.63252 -12.6637 -5.42141
RightLeg  5.20817 -40.8325 3.35088
RightFoot  -8.07793 -0.165424 3.85194
RightToes  2.96859e-009 0 -3.6325e-017
Spine  4.47337 0.944773 9.57117
Spine1  13.3983 2.04816 -2.43452
HEad  -5.49395 5.44308 -24.1622
LeftShoulder1  0.00862063 3.48049 -31.4755
LeftArm  -17.5779 6.94359 -35.7671
LeftForeArm  70.1358 -78.912 -92.3439
LeftHand  0.0283871 3.99802 -4.45799
RightShoulder  -0.309475 -4.43121 26.1904
RightArm  -14.8202 -13.2903 38.6059
RightForeArm  115.106 69.6951 146.601
RightHand  -0.033329 -3.01896 -0.842573
LeftUpLeg  -12.0766 12.756 0.0278427
LeftLeg  7.08952 29.4003 -1.65411
LeftFoot  -3.00313 -0.25102 3.69189
LeftToes  3.24686e-010 -7.02549e-012 1.39809e-011
602
root  65.6872 39.2534 10.8683 178.1 -21.7996 178.143
RightUpLeg  10.7445 -12.5828 -5.40529
RightLeg  3.09608 -45.4819 4.88452
RightFoot  -7.86456 -0.204178 4.97702
RightToes  2.96859e-009 0 -3.6325e-017
Spine  4.04964 1.08006 8.70141
Spine1  13.6509 2.2598 -2.76002
HEad  -5.15373 3.79816 -22.6239
LeftShoulder1  -0.0718614 3.69103 -31.6672
LeftArm  -17.9012 7.10247 -35.5631
LeftForeArm  74.6669 -78.8195 -97.2907
LeftHand  -0.00573769 4.71082 -4.17188
RightShoulder  -0.279753 -4.35011 25.789
RightArm  -15.1551 -12.5113 38.8318
RightForeArm  115.684 69.441 147.106
RightHand  -0.0274475 -3.71095 -0.532527
LeftUpLeg  -10.1972 9.11046 0.445903
LeftLeg  4.03164 40.5833 -2.98537
LeftFoot  -2.71687 -0.318766 4.43488
LeftToes  3.24686e-010 -7.02549e-012 1.39809e-011
